{"Protocol":0,"Id":"8a1aea5ee22cb3a707c97d94b319dc7b","Path":"/media/ram/2014 X-ART/[X-Art] 2014-01-06 Tiffany Thompson - In For The Night [MP4][1920x1080]/x-art_tiffany_brandon_in_for_the_evening_1080.mp4","EncoderPath":null,"EncoderProtocol":null,"Type":0,"Container":"mov,mp4,m4a,3gp,3g2,mj2","Size":836382019,"Name":"x-art_tiffany_brandon_in_for_the_evening_1080","IsRemote":false,"ETag":"b2a42e2b0dacc5b63f719834a6f71d4e","RunTimeTicks":11403252710,"ReadAtNativeFramerate":false,"IgnoreDts":false,"IgnoreIndex":false,"GenPtsInput":false,"SupportsTranscoding":true,"SupportsDirectStream":true,"SupportsDirectPlay":true,"IsInfiniteStream":false,"UseMostCompatibleTranscodingProfile":false,"RequiresOpening":false,"OpenToken":null,"RequiresClosing":false,"LiveStreamId":null,"BufferMs":null,"RequiresLooping":false,"SupportsProbing":true,"VideoType":0,"IsoType":null,"Video3DFormat":null,"MediaStreams":[{"Codec":"mpeg4","CodecTag":"mp4v","Language":"eng","ColorRange":null,"ColorSpace":null,"ColorTransfer":null,"ColorPrimaries":null,"DvVersionMajor":null,"DvVersionMinor":null,"DvProfile":null,"DvLevel":null,"RpuPresentFlag":null,"ElPresentFlag":null,"BlPresentFlag":null,"DvBlSignalCompatibilityId":null,"Rotation":null,"Comment":null,"TimeBase":"1/1199","CodecTimeBase":null,"Title":null,"VideoRange":1,"VideoRangeType":1,"VideoDoViTitle":null,"AudioSpatialFormat":0,"LocalizedUndefined":null,"LocalizedDefault":null,"LocalizedForced":null,"LocalizedExternal":null,"LocalizedHearingImpaired":null,"DisplayTitle":"1080p MPEG4 SDR","NalLengthSize":null,"IsInterlaced":false,"IsAVC":false,"ChannelLayout":null,"BitRate":5765856,"BitDepth":8,"RefFrames":1,"PacketLength":null,"Channels":null,"SampleRate":null,"IsDefault":true,"IsForced":false,"IsHearingImpaired":false,"Height":1080,"Width":1920,"AverageFrameRate":23.98,"RealFrameRate":23.98,"ReferenceFrameRate":23.98,"Profile":"Simple Profile","Type":1,"AspectRatio":"16:9","Index":0,"Score":null,"IsExternal":false,"DeliveryMethod":null,"DeliveryUrl":null,"IsExternalUrl":null,"IsTextSubtitleStream":false,"SupportsExternalStream":false,"Path":null,"PixelFormat":"yuv420p","Level":1,"IsAnamorphic":false},{"Codec":"aac","CodecTag":"mp4a","Language":"eng","ColorRange":null,"ColorSpace":null,"ColorTransfer":null,"ColorPrimaries":null,"DvVersionMajor":null,"DvVersionMinor":null,"DvProfile":null,"DvLevel":null,"RpuPresentFlag":null,"ElPresentFlag":null,"BlPresentFlag":null,"DvBlSignalCompatibilityId":null,"Rotation":null,"Comment":null,"TimeBase":"1/48000","CodecTimeBase":null,"Title":null,"VideoRange":0,"VideoRangeType":0,"VideoDoViTitle":null,"AudioSpatialFormat":0,"LocalizedUndefined":null,"LocalizedDefault":"Default","LocalizedForced":null,"LocalizedExternal":"External","LocalizedHearingImpaired":null,"DisplayTitle":"English - AAC - Stereo - Default","NalLengthSize":null,"IsInterlaced":false,"IsAVC":false,"ChannelLayout":"stereo","BitRate":97721,"BitDepth":null,"RefFrames":null,"PacketLength":null,"Channels":2,"SampleRate":48000,"IsDefault":true,"IsForced":false,"IsHearingImpaired":false,"Height":null,"Width":null,"AverageFrameRate":null,"RealFrameRate":null,"ReferenceFrameRate":null,"Profile":"LC","Type":0,"AspectRatio":null,"Index":1,"Score":null,"IsExternal":false,"DeliveryMethod":null,"DeliveryUrl":null,"IsExternalUrl":null,"IsTextSubtitleStream":false,"SupportsExternalStream":false,"Path":null,"PixelFormat":null,"Level":0,"IsAnamorphic":null}],"MediaAttachments":[],"Formats":[],"Bitrate":5867673,"FallbackMaxStreamingBitrate":null,"Timestamp":null,"RequiredHttpHeaders":{},"TranscodingUrl":null,"TranscodingSubProtocol":0,"TranscodingContainer":null,"AnalyzeDurationMs":null,"DefaultAudioStreamIndex":null,"DefaultSubtitleStreamIndex":null,"HasSegments":false}

/usr/lib/jellyfin-ffmpeg/ffmpeg -analyzeduration 200M -probesize 1G  -i file:"/media/ram/2014 X-ART/[X-Art] 2014-01-06 Tiffany Thompson - In For The Night [MP4][1920x1080]/x-art_tiffany_brandon_in_for_the_evening_1080.mp4" -map_metadata -1 -map_chapters -1 -threads 0 -map 0:0 -map 0:1 -map -0:s -codec:v:0 libx264 -preset veryfast -crf 23 -maxrate 5765856 -bufsize 11531712 -profile:v:0 high -level 51 -x264opts:0 subme=0:me_range=16:rc_lookahead=10:me=hex:open_gop=0 -force_key_frames:0 "expr:gte(t,n_forced*3)" -sc_threshold:v:0 0 -vf "setparams=color_primaries=bt709:color_trc=bt709:colorspace=bt709,scale=trunc(min(max(iw\,ih*a)\,min(1920\,1080*a))/2)*2:trunc(min(max(iw/a\,ih)\,min(1920/a\,1080))/2)*2,format=yuv420p" -codec:a:0 copy -copyts -avoid_negative_ts disabled -max_muxing_queue_size 2048 -f hls -max_delay 5000000 -hls_time 3 -hls_segment_type fmp4 -hls_fmp4_init_filename "ad1dc1f35c1d1aeaaa559931362cef8e-1.mp4" -start_number 0 -hls_segment_filename "/cache/transcodes/ad1dc1f35c1d1aeaaa559931362cef8e%d.mp4" -hls_playlist_type vod -hls_list_size 0 -y "/cache/transcodes/ad1dc1f35c1d1aeaaa559931362cef8e.m3u8"


ffmpeg version 7.0.2-Jellyfin Copyright (c) 2000-2024 the FFmpeg developers
  built with gcc 12 (Debian 12.2.0-14)
  configuration: --prefix=/usr/lib/jellyfin-ffmpeg --target-os=linux --extra-version=Jellyfin --disable-doc --disable-ffplay --disable-ptx-compression --disable-static --disable-libxcb --disable-sdl2 --disable-xlib --enable-lto=auto --enable-gpl --enable-version3 --enable-shared --enable-gmp --enable-gnutls --enable-chromaprint --enable-opencl --enable-libdrm --enable-libxml2 --enable-libass --enable-libfreetype --enable-libfribidi --enable-libfontconfig --enable-libharfbuzz --enable-libbluray --enable-libmp3lame --enable-libopus --enable-libtheora --enable-libvorbis --enable-libopenmpt --enable-libdav1d --enable-libsvtav1 --enable-libwebp --enable-libvpx --enable-libx264 --enable-libx265 --enable-libzvbi --enable-libzimg --enable-libfdk-aac --arch=arm64 --cross-prefix=/usr/bin/aarch64-linux-gnu- --toolchain=hardened --enable-cross-compile --enable-rkmpp --enable-rkrga
  libavutil      59.  8.100 / 59.  8.100
  libavcodec     61.  3.100 / 61.  3.100
  libavformat    61.  1.100 / 61.  1.100
  libavdevice    61.  1.100 / 61.  1.100
  libavfilter    10.  1.100 / 10.  1.100
  libswscale      8.  1.100 /  8.  1.100
  libswresample   5.  1.100 /  5.  1.100
  libpostproc    58.  1.100 / 58.  1.100
Input #0, mov,mp4,m4a,3gp,3g2,mj2, from 'file:/media/ram/2014 X-ART/[X-Art] 2014-01-06 Tiffany Thompson - In For The Night [MP4][1920x1080]/x-art_tiffany_brandon_in_for_the_evening_1080.mp4':
  Metadata:
    major_brand     : isom
    minor_version   : 512
    compatible_brands: isomiso2mp41
    encoder         : Lavf54.22.100
  Duration: 00:19:00.33, start: 0.000000, bitrate: 5867 kb/s
  Stream #0:0[0x1](eng): Video: mpeg4 (Simple Profile) (mp4v / 0x7634706D), yuv420p, 1920x1080 [SAR 1:1 DAR 16:9], 5765 kb/s, 23.98 fps, 23.98 tbr, 1199 tbn (default)
      Metadata:
        handler_name    : VideoHandler
        vendor_id       : [0][0][0][0]
  Stream #0:1[0x2](eng): Audio: aac (LC) (mp4a / 0x6134706D), 48000 Hz, stereo, fltp, 97 kb/s (default)
      Metadata:
        handler_name    : SoundHandler
        vendor_id       : [0][0][0][0]
Stream mapping:
  Stream #0:0 -> #0:0 (mpeg4 (native) -> h264 (libx264))
  Stream #0:1 -> #0:1 (copy)
Press [q] to stop, [?] for help
[libx264 @ 0xaaaada89b9e0] using SAR=1/1
[libx264 @ 0xaaaada89b9e0] using cpu capabilities: ARMv8 NEON
[libx264 @ 0xaaaada89b9e0] profile High, level 5.1, 4:2:0, 8-bit
[libx264 @ 0xaaaada89b9e0] 264 - core 164 r3095 baee400 - H.264/MPEG-4 AVC codec - Copyleft 2003-2022 - http://www.videolan.org/x264.html - options: cabac=1 ref=1 deblock=1:0:0 analyse=0x3:0x113 me=hex subme=0 psy=1 psy_rd=1.00:0.00 mixed_ref=0 me_range=16 chroma_me=1 trellis=0 8x8dct=1 cqm=0 deadzone=21,11 fast_pskip=1 chroma_qp_offset=0 threads=6 lookahead_threads=1 sliced_threads=0 nr=0 decimate=1 interlaced=0 bluray_compat=0 constrained_intra=0 bframes=3 b_pyramid=2 b_adapt=1 b_bias=0 direct=1 weightb=1 open_gop=0 weightp=1 keyint=250 keyint_min=23 scenecut=0 intra_refresh=0 rc_lookahead=10 rc=crf mbtree=1 crf=23.0 qcomp=0.60 qpmin=0 qpmax=69 qpstep=4 vbv_maxrate=5765 vbv_bufsize=11531 crf_max=0.0 nal_hrd=none filler=0 ip_ratio=1.40 aq=1:1.00
[hls @ 0xaaaada8b6530] Opening '/cache/transcodes/ad1dc1f35c1d1aeaaa559931362cef8e-1.mp4' for writing
Output #0, hls, to '/cache/transcodes/ad1dc1f35c1d1aeaaa559931362cef8e.m3u8':
  Metadata:
    encoder         : Lavf61.1.100
  Stream #0:0: Video: h264, yuv420p(bt709, progressive), 1920x1080 [SAR 1:1 DAR 16:9], q=2-31, 23.98 fps, 19184 tbn (default)
      Metadata:
        encoder         : Lavc61.3.100 libx264
      Side data:
        cpb: bitrate max/min/avg: 5765000/0/0 buffer size: 11531000 vbv_delay: N/A
  Stream #0:1: Audio: aac (LC) (mp4a / 0x6134706D), 48000 Hz, stereo, fltp, 97 kb/s (default)
frame=    0 fps=0.0 q=0.0 size=N/A time=N/A bitrate=N/A speed=N/A    
frame=    0 fps=0.0 q=0.0 size=N/A time=N/A bitrate=N/A speed=N/A    
frame=   15 fps=9.9 q=28.0 size=N/A time=00:00:00.00 bitrate=N/A speed=   0x    
frame=   27 fps= 13 q=28.0 size=N/A time=00:00:00.50 bitrate=N/A speed=0.248x    
frame=   45 fps= 18 q=28.0 size=N/A time=00:00:01.25 bitrate=N/A speed=0.497x    
frame=   55 fps= 18 q=28.0 size=N/A time=00:00:01.66 bitrate=N/A speed=0.553x    
frame=   67 fps= 19 q=28.0 size=N/A time=00:00:02.16 bitrate=N/A speed=0.614x    
[hls @ 0xaaaada8b6530] Opening '/cache/transcodes/ad1dc1f35c1d1aeaaa559931362cef8e0.mp4' for writing
frame=   78 fps= 19 q=28.0 size=N/A time=00:00:02.62 bitrate=N/A speed=0.652x    
frame=   87 fps= 19 q=28.0 size=N/A time=00:00:03.00 bitrate=N/A speed=0.663x    
frame=   99 fps= 20 q=28.0 size=N/A time=00:00:03.50 bitrate=N/A speed=0.696x    
frame=  107 fps= 19 q=28.0 size=N/A time=00:00:03.83 bitrate=N/A speed=0.694x    
frame=  111 fps= 18 q=28.0 size=N/A time=00:00:04.00 bitrate=N/A speed=0.664x    
frame=  115 fps= 18 q=28.0 size=N/A time=00:00:04.17 bitrate=N/A speed=0.638x    
frame=  115 fps= 16 q=28.0 size=N/A time=00:00:04.17 bitrate=N/A speed=0.593x    
frame=  119 fps= 16 q=28.0 size=N/A time=00:00:04.33 bitrate=N/A speed=0.576x    
frame=  123 fps= 15 q=28.0 size=N/A time=00:00:04.50 bitrate=N/A speed=0.561x    
frame=  127 fps= 15 q=28.0 size=N/A time=00:00:04.67 bitrate=N/A speed=0.547x    
frame=  135 fps= 15 q=28.0 size=N/A time=00:00:05.00 bitrate=N/A speed=0.553x    
frame=  143 fps= 15 q=28.0 size=N/A time=00:00:05.33 bitrate=N/A speed=0.559x    
[hls @ 0xaaaada8b6530] Opening '/cache/transcodes/ad1dc1f35c1d1aeaaa559931362cef8e1.mp4' for writing
frame=  148 fps= 15 q=28.0 size=N/A time=00:00:05.54 bitrate=N/A speed=0.552x    
frame=  148 fps= 14 q=28.0 size=N/A time=00:00:05.54 bitrate=N/A speed=0.526x    
frame=  152 fps= 14 q=28.0 size=N/A time=00:00:05.71 bitrate=N/A speed=0.517x    
frame=  153 fps= 13 q=28.0 size=N/A time=00:00:05.75 bitrate=N/A speed=0.498x    
frame=  160 fps= 13 q=28.0 size=N/A time=00:00:06.04 bitrate=N/A speed=0.502x    
frame=  164 fps= 13 q=28.0 size=N/A time=00:00:06.21 bitrate=N/A speed=0.495x    
frame=  168 fps= 13 q=28.0 size=N/A time=00:00:06.38 bitrate=N/A speed=0.489x    
frame=  168 fps= 12 q=28.0 size=N/A time=00:00:06.38 bitrate=N/A speed=0.471x    
frame=  172 fps= 12 q=28.0 size=N/A time=00:00:06.54 bitrate=N/A speed=0.466x    
frame=  172 fps= 12 q=28.0 size=N/A time=00:00:06.54 bitrate=N/A speed=0.45x    
frame=  177 fps= 12 q=28.0 size=N/A time=00:00:06.75 bitrate=N/A speed=0.449x    
frame=  181 fps= 12 q=28.0 size=N/A time=00:00:06.92 bitrate=N/A speed=0.445x    
frame=  184 fps= 11 q=28.0 size=N/A time=00:00:07.04 bitrate=N/A speed=0.439x    
frame=  188 fps= 11 q=28.0 size=N/A time=00:00:07.21 bitrate=N/A speed=0.436x    
frame=  192 fps= 11 q=28.0 size=N/A time=00:00:07.38 bitrate=N/A speed=0.433x    
frame=  196 fps= 11 q=28.0 size=N/A time=00:00:07.54 bitrate=N/A speed=0.43x    
frame=  200 fps= 11 q=28.0 size=N/A time=00:00:07.71 bitrate=N/A speed=0.427x    
frame=  206 fps= 11 q=28.0 size=N/A time=00:00:07.96 bitrate=N/A speed=0.429x    
frame=  209 fps= 11 q=28.0 size=N/A time=00:00:08.09 bitrate=N/A speed=0.424x    
frame=  216 fps= 11 q=28.0 size=N/A time=00:00:08.38 bitrate=N/A speed=0.429x    
[hls @ 0xaaaada8b6530] Opening '/cache/transcodes/ad1dc1f35c1d1aeaaa559931362cef8e2.mp4' for writing
frame=  220 fps= 11 q=28.0 size=N/A time=00:00:08.54 bitrate=N/A speed=0.426x    
frame=  225 fps= 11 q=28.0 size=N/A time=00:00:08.75 bitrate=N/A speed=0.426x    
frame=  228 fps= 11 q=28.0 size=N/A time=00:00:08.88 bitrate=N/A speed=0.422x    
frame=  232 fps= 11 q=28.0 size=N/A time=00:00:09.04 bitrate=N/A speed=0.42x    
frame=  236 fps= 11 q=28.0 size=N/A time=00:00:09.21 bitrate=N/A speed=0.418x    
frame=  236 fps= 10 q=28.0 size=N/A time=00:00:09.21 bitrate=N/A speed=0.408x    
frame=  240 fps= 10 q=28.0 size=N/A time=00:00:09.38 bitrate=N/A speed=0.406x    
frame=  240 fps= 10 q=28.0 size=N/A time=00:00:09.38 bitrate=N/A speed=0.398x    
frame=  244 fps= 10 q=28.0 size=N/A time=00:00:09.54 bitrate=N/A speed=0.396x    
frame=  248 fps= 10 q=28.0 size=N/A time=00:00:09.71 bitrate=N/A speed=0.395x    
frame=  252 fps= 10 q=28.0 size=N/A time=00:00:09.88 bitrate=N/A speed=0.394x    
frame=  256 fps= 10 q=28.0 size=N/A time=00:00:10.05 bitrate=N/A speed=0.393x    
frame=  256 fps=9.8 q=28.0 size=N/A time=00:00:10.09 bitrate=N/A speed=0.387x    
frame=  264 fps=9.9 q=28.0 size=N/A time=00:00:10.38 bitrate=N/A speed=0.391x    
frame=  264 fps=9.7 q=28.0 size=N/A time=00:00:10.38 bitrate=N/A speed=0.383x    
frame=  268 fps=9.7 q=28.0 size=N/A time=00:00:10.55 bitrate=N/A speed=0.382x    
frame=  272 fps=9.7 q=28.0 size=N/A time=00:00:10.71 bitrate=N/A speed=0.382x    
frame=  272 fps=9.5 q=28.0 size=N/A time=00:00:10.71 bitrate=N/A speed=0.375x    
frame=  276 fps=9.5 q=28.0 size=N/A time=00:00:10.88 bitrate=N/A speed=0.374x    
frame=  277 fps=9.4 q=28.0 size=N/A time=00:00:10.92 bitrate=N/A speed=0.369x    
frame=  280 fps=9.3 q=28.0 size=N/A time=00:00:11.05 bitrate=N/A speed=0.367x    
frame=  283 fps=9.3 q=28.0 size=N/A time=00:00:11.17 bitrate=N/A speed=0.365x    
frame=  283 fps=9.1 q=28.0 size=N/A time=00:00:11.17 bitrate=N/A speed=0.359x    
frame=  286 fps=9.1 q=28.0 size=N/A time=00:00:11.30 bitrate=N/A speed=0.358x    
frame=  288 fps=9.0 q=28.0 size=N/A time=00:00:11.38 bitrate=N/A speed=0.355x    
[hls @ 0xaaaada8b6530] Opening '/cache/transcodes/ad1dc1f35c1d1aeaaa559931362cef8e3.mp4' for writing
frame=  292 fps=9.0 q=28.0 size=N/A time=00:00:11.55 bitrate=N/A speed=0.354x    
frame=  294 fps=8.9 q=28.0 size=N/A time=00:00:11.63 bitrate=N/A speed=0.351x    
frame=  298 fps=8.7 q=28.0 size=N/A time=00:00:11.80 bitrate=N/A speed=0.346x    
frame=  300 fps=8.7 q=28.0 size=N/A time=00:00:11.88 bitrate=N/A speed=0.343x    
frame=  304 fps=8.7 q=28.0 size=N/A time=00:00:12.05 bitrate=N/A speed=0.343x    
frame=  305 fps=8.6 q=28.0 size=N/A time=00:00:12.09 bitrate=N/A speed=0.34x    
frame=  308 fps=8.5 q=28.0 size=N/A time=00:00:12.21 bitrate=N/A speed=0.338x    
frame=  313 fps=8.5 q=28.0 size=N/A time=00:00:12.42 bitrate=N/A speed=0.339x    
frame=  317 fps=8.5 q=28.0 size=N/A time=00:00:12.59 bitrate=N/A speed=0.339x    
frame=  320 fps=8.5 q=28.0 size=N/A time=00:00:12.71 bitrate=N/A speed=0.338x    
frame=  324 fps=8.5 q=28.0 size=N/A time=00:00:12.88 bitrate=N/A speed=0.338x    
frame=  324 fps=8.4 q=28.0 size=N/A time=00:00:12.88 bitrate=N/A speed=0.334x    
frame=  328 fps=8.4 q=28.0 size=N/A time=00:00:13.05 bitrate=N/A speed=0.334x    
frame=  333 fps=8.4 q=28.0 size=N/A time=00:00:13.26 bitrate=N/A speed=0.335x    
frame=  340 fps=8.5 q=28.0 size=N/A time=00:00:13.55 bitrate=N/A speed=0.338x    
frame=  344 fps=8.5 q=28.0 size=N/A time=00:00:13.71 bitrate=N/A speed=0.338x    
frame=  344 fps=8.4 q=28.0 size=N/A time=00:00:13.71 bitrate=N/A speed=0.334x    
frame=  346 fps=8.3 q=28.0 size=N/A time=00:00:13.80 bitrate=N/A speed=0.332x    
frame=  348 fps=8.3 q=28.0 size=N/A time=00:00:13.88 bitrate=N/A speed=0.33x    
frame=  350 fps=8.2 q=28.0 size=N/A time=00:00:13.96 bitrate=N/A speed=0.328x    
frame=  352 fps=8.2 q=28.0 size=N/A time=00:00:14.05 bitrate=N/A speed=0.326x    
frame=  356 fps=8.2 q=25.0 size=N/A time=00:00:14.22 bitrate=N/A speed=0.326x    
frame=  360 fps=8.2 q=28.0 size=N/A time=00:00:14.38 bitrate=N/A speed=0.326x    
[hls @ 0xaaaada8b6530] Opening '/cache/transcodes/ad1dc1f35c1d1aeaaa559931362cef8e4.mp4' for writing
frame=  366 fps=8.2 q=28.0 size=N/A time=00:00:14.63 bitrate=N/A speed=0.328x    
frame=  369 fps=8.2 q=28.0 size=N/A time=00:00:14.76 bitrate=N/A speed=0.327x    
frame=  373 fps=8.2 q=28.0 size=N/A time=00:00:14.92 bitrate=N/A speed=0.327x    
frame=  377 fps=8.2 q=28.0 size=N/A time=00:00:15.09 bitrate=N/A speed=0.327x    
frame=  380 fps=8.1 q=28.0 size=N/A time=00:00:15.22 bitrate=N/A speed=0.326x    
frame=  381 fps=8.1 q=28.0 size=N/A time=00:00:15.26 bitrate=N/A speed=0.324x    
frame=  385 fps=8.1 q=28.0 size=N/A time=00:00:15.42 bitrate=N/A speed=0.324x    
frame=  392 fps=8.1 q=28.0 size=N/A time=00:00:15.72 bitrate=N/A speed=0.327x    
frame=  397 fps=8.2 q=28.0 size=N/A time=00:00:15.92 bitrate=N/A speed=0.327x    
frame=  404 fps=8.2 q=28.0 size=N/A time=00:00:16.22 bitrate=N/A speed=0.33x    
frame=  404 fps=8.1 q=28.0 size=N/A time=00:00:16.22 bitrate=N/A speed=0.327x    
frame=  408 fps=8.1 q=28.0 size=N/A time=00:00:16.38 bitrate=N/A speed=0.327x    
frame=  412 fps=8.1 q=28.0 size=N/A time=00:00:16.55 bitrate=N/A speed=0.327x    
frame=  417 fps=8.2 q=28.0 size=N/A time=00:00:16.76 bitrate=N/A speed=0.328x    
frame=  421 fps=8.2 q=28.0 size=N/A time=00:00:16.93 bitrate=N/A speed=0.328x    
frame=  429 fps=8.2 q=28.0 size=N/A time=00:00:17.26 bitrate=N/A speed=0.331x    
[hls @ 0xaaaada8b6530] Opening '/cache/transcodes/ad1dc1f35c1d1aeaaa559931362cef8e5.mp4' for writing
frame=  433 fps=8.2 q=28.0 size=N/A time=00:00:17.47 bitrate=N/A speed=0.332x    
frame=  441 fps=8.3 q=28.0 size=N/A time=00:00:17.76 bitrate=N/A speed=0.334x    
frame=  448 fps=8.4 q=28.0 size=N/A time=00:00:18.05 bitrate=N/A speed=0.337x    
frame=  455 fps=8.4 q=28.0 size=N/A time=00:00:18.34 bitrate=N/A speed=0.339x    
frame=  460 fps=8.4 q=28.0 size=N/A time=00:00:18.55 bitrate=N/A speed=0.34x    
frame=  467 fps=8.5 q=28.0 size=N/A time=00:00:18.84 bitrate=N/A speed=0.342x    
frame=  474 fps=8.5 q=28.0 size=N/A time=00:00:19.14 bitrate=N/A speed=0.344x    
frame=  474 fps=8.4 q=28.0 size=N/A time=00:00:19.18 bitrate=N/A speed=0.342x    
frame=  478 fps=8.4 q=28.0 size=N/A time=00:00:19.30 bitrate=N/A speed=0.341x    
frame=  482 fps=8.4 q=28.0 size=N/A time=00:00:19.47 bitrate=N/A speed=0.341x    
frame=  486 fps=8.4 q=28.0 size=N/A time=00:00:19.64 bitrate=N/A speed=0.341x    
frame=  491 fps=8.4 q=28.0 size=N/A time=00:00:19.84 bitrate=N/A speed=0.341x    
frame=  492 fps=8.4 q=28.0 size=N/A time=00:00:19.89 bitrate=N/A speed=0.339x    
frame=  499 fps=8.4 q=28.0 size=N/A time=00:00:20.18 bitrate=N/A speed=0.341x    
frame=  504 fps=8.4 q=28.0 size=N/A time=00:00:20.39 bitrate=N/A speed=0.342x    
[hls @ 0xaaaada8b6530] Opening '/cache/transcodes/ad1dc1f35c1d1aeaaa559931362cef8e6.mp4' for writing
frame=  510 fps=8.5 q=28.0 size=N/A time=00:00:20.64 bitrate=N/A speed=0.343x    
frame=  512 fps=8.4 q=28.0 size=N/A time=00:00:20.72 bitrate=N/A speed=0.342x    
frame=  518 fps=8.5 q=28.0 size=N/A time=00:00:20.97 bitrate=N/A speed=0.343x    
frame=  526 fps=8.5 q=28.0 size=N/A time=00:00:21.30 bitrate=N/A speed=0.345x    
frame=  530 fps=8.5 q=28.0 size=N/A time=00:00:21.47 bitrate=N/A speed=0.345x    
frame=  530 fps=8.5 q=28.0 size=N/A time=00:00:21.47 bitrate=N/A speed=0.343x    
frame=  536 fps=8.5 q=28.0 size=N/A time=00:00:21.72 bitrate=N/A speed=0.344x    
frame=  542 fps=8.5 q=28.0 size=N/A time=00:00:21.97 bitrate=N/A speed=0.345x    
frame=  550 fps=8.6 q=28.0 size=N/A time=00:00:22.31 bitrate=N/A speed=0.348x    
frame=  552 fps=8.5 q=28.0 size=N/A time=00:00:22.39 bitrate=N/A speed=0.346x    
frame=  559 fps=8.6 q=28.0 size=N/A time=00:00:22.68 bitrate=N/A speed=0.348x    
frame=  562 fps=8.6 q=28.0 size=N/A time=00:00:22.81 bitrate=N/A speed=0.347x    
frame=  566 fps=8.6 q=28.0 size=N/A time=00:00:22.97 bitrate=N/A speed=0.347x    
frame=  566 fps=8.5 q=28.0 size=N/A time=00:00:22.97 bitrate=N/A speed=0.345x    
frame=  570 fps=8.5 q=28.0 size=N/A time=00:00:23.14 bitrate=N/A speed=0.344x    
frame=  572 fps=8.5 q=25.0 size=N/A time=00:00:23.22 bitrate=N/A speed=0.343x    
frame=  576 fps=8.4 q=28.0 size=N/A time=00:00:23.39 bitrate=N/A speed=0.343x    
[hls @ 0xaaaada8b6530] Opening '/cache/transcodes/ad1dc1f35c1d1aeaaa559931362cef8e7.mp4' for writing
frame=  580 fps=8.4 q=28.0 size=N/A time=00:00:23.56 bitrate=N/A speed=0.343x    
frame=  588 fps=8.5 q=28.0 size=N/A time=00:00:23.89 bitrate=N/A speed=0.345x    
frame=  590 fps=8.5 q=28.0 size=N/A time=00:00:23.97 bitrate=N/A speed=0.344x    
frame=  596 fps=8.5 q=28.0 size=N/A time=00:00:24.22 bitrate=N/A speed=0.345x    
frame=  601 fps=8.5 q=28.0 size=N/A time=00:00:24.43 bitrate=N/A speed=0.346x    
frame=  608 fps=8.5 q=28.0 size=N/A time=00:00:24.72 bitrate=N/A speed=0.347x    
frame=  612 fps=8.5 q=28.0 size=N/A time=00:00:24.89 bitrate=N/A speed=0.347x    
frame=  616 fps=8.5 q=28.0 size=N/A time=00:00:25.06 bitrate=N/A speed=0.347x    
frame=  620 fps=8.5 q=28.0 size=N/A time=00:00:25.22 bitrate=N/A speed=0.347x    
frame=  624 fps=8.5 q=28.0 size=N/A time=00:00:25.39 bitrate=N/A speed=0.347x    
frame=  626 fps=8.5 q=28.0 size=N/A time=00:00:25.47 bitrate=N/A speed=0.346x    
frame=  632 fps=8.5 q=28.0 size=N/A time=00:00:25.72 bitrate=N/A speed=0.347x    
frame=  632 fps=8.5 q=28.0 size=N/A time=00:00:25.72 bitrate=N/A speed=0.344x    
frame=  637 fps=8.5 q=28.0 size=N/A time=00:00:25.93 bitrate=N/A speed=0.345x    
frame=  641 fps=8.5 q=28.0 size=N/A time=00:00:26.10 bitrate=N/A speed=0.345x    
frame=  643 fps=8.4 q=28.0 size=N/A time=00:00:26.18 bitrate=N/A speed=0.344x    
frame=  648 fps=8.4 q=28.0 size=N/A time=00:00:26.39 bitrate=N/A speed=0.344x    
[hls @ 0xaaaada8b6530] Opening '/cache/transcodes/ad1dc1f35c1d1aeaaa559931362cef8e8.mp4' for writing
frame=  649 fps=8.4 q=28.0 size=N/A time=00:00:26.52 bitrate=N/A speed=0.344x    
frame=  652 fps=8.4 q=28.0 size=N/A time=00:00:26.56 bitrate=N/A speed=0.342x    
frame=  656 fps=8.4 q=28.0 size=N/A time=00:00:26.73 bitrate=N/A speed=0.342x    
frame=  660 fps=8.4 q=28.0 size=N/A time=00:00:26.89 bitrate=N/A speed=0.342x    
frame=  660 fps=8.3 q=28.0 size=N/A time=00:00:26.89 bitrate=N/A speed=0.34x    
frame=  666 fps=8.4 q=28.0 size=N/A time=00:00:27.14 bitrate=N/A speed=0.341x    
frame=  672 fps=8.4 q=28.0 size=N/A time=00:00:27.39 bitrate=N/A speed=0.342x    
frame=  672 fps=8.3 q=28.0 size=N/A time=00:00:27.39 bitrate=N/A speed=0.339x    
frame=  676 fps=8.3 q=28.0 size=N/A time=00:00:27.56 bitrate=N/A speed=0.339x    
frame=  681 fps=8.3 q=28.0 size=N/A time=00:00:27.77 bitrate=N/A speed=0.34x    
frame=  686 fps=8.3 q=28.0 size=N/A time=00:00:27.98 bitrate=N/A speed=0.34x    
frame=  692 fps=8.4 q=28.0 size=N/A time=00:00:28.23 bitrate=N/A speed=0.341x    
frame=  697 fps=8.4 q=28.0 size=N/A time=00:00:28.44 bitrate=N/A speed=0.342x    
frame=  701 fps=8.4 q=28.0 size=N/A time=00:00:28.60 bitrate=N/A speed=0.342x    
frame=  708 fps=8.4 q=28.0 size=N/A time=00:00:28.89 bitrate=N/A speed=0.343x    
frame=  712 fps=8.4 q=28.0 size=N/A time=00:00:29.06 bitrate=N/A speed=0.343x    
frame=  716 fps=8.4 q=25.0 size=N/A time=00:00:29.23 bitrate=N/A speed=0.343x    
frame=  718 fps=8.4 q=28.0 size=N/A time=00:00:29.31 bitrate=N/A speed=0.342x    
[hls @ 0xaaaada8b6530] Opening '/cache/transcodes/ad1dc1f35c1d1aeaaa559931362cef8e9.mp4' for writing
frame=  724 fps=8.4 q=28.0 size=N/A time=00:00:29.56 bitrate=N/A speed=0.343x    
frame=  730 fps=8.4 q=28.0 size=N/A time=00:00:29.81 bitrate=N/A speed=0.344x    
frame=  735 fps=8.4 q=28.0 size=N/A time=00:00:30.02 bitrate=N/A speed=0.344x    
frame=  741 fps=8.4 q=28.0 size=N/A time=00:00:30.27 bitrate=N/A speed=0.345x    
frame=  746 fps=8.5 q=28.0 size=N/A time=00:00:30.48 bitrate=N/A speed=0.345x    
frame=  750 fps=8.5 q=28.0 size=N/A time=00:00:30.65 bitrate=N/A speed=0.345x    
frame=  756 fps=8.5 q=28.0 size=N/A time=00:00:30.90 bitrate=N/A speed=0.346x    
frame=  758 fps=8.4 q=28.0 size=N/A time=00:00:30.98 bitrate=N/A speed=0.345x    
frame=  762 fps=8.4 q=28.0 size=N/A time=00:00:31.15 bitrate=N/A speed=0.345x    
frame=  767 fps=8.5 q=28.0 size=N/A time=00:00:31.35 bitrate=N/A speed=0.346x    
frame=  775 fps=8.5 q=28.0 size=N/A time=00:00:31.69 bitrate=N/A speed=0.347x    
frame=  783 fps=8.5 q=28.0 size=N/A time=00:00:32.02 bitrate=N/A speed=0.349x    
frame=  792 fps=8.6 q=28.0 size=N/A time=00:00:32.40 bitrate=N/A speed=0.351x    
[hls @ 0xaaaada8b6530] Opening '/cache/transcodes/ad1dc1f35c1d1aeaaa559931362cef8e10.mp4' for writing


[q] command received. Exiting.

[hls @ 0xaaaada8b6530] Opening '/cache/transcodes/ad1dc1f35c1d1aeaaa559931362cef8e11.mp4' for writing
[out#0/hls @ 0xaaaada8942a0] video:8530KiB audio:541KiB subtitle:0KiB other streams:0KiB global headers:0KiB muxing overhead: unknown
frame=  832 fps=8.5 q=-1.0 Lsize=N/A time=00:00:34.07 bitrate=N/A speed=0.35x    
[libx264 @ 0xaaaada89b9e0] frame I:12    Avg QP:14.62  size: 45134
[libx264 @ 0xaaaada89b9e0] frame P:215   Avg QP:18.13  size: 19731
[libx264 @ 0xaaaada89b9e0] frame B:605   Avg QP:19.02  size:  6530
[libx264 @ 0xaaaada89b9e0] consecutive B-frames:  2.2%  1.4%  3.6% 92.8%
[libx264 @ 0xaaaada89b9e0] mb I  I16..4: 37.5% 47.3% 15.2%
[libx264 @ 0xaaaada89b9e0] mb P  I16..4: 15.7% 21.2%  1.1%  P16..4: 21.7%  7.8%  2.4%  0.0%  0.0%    skip:30.1%
[libx264 @ 0xaaaada89b9e0] mb B  I16..4:  2.9%  1.7%  0.0%  B16..8: 15.9%  4.2%  0.3%  direct: 8.1%  skip:66.8%  L0:48.4% L1:46.8% BI: 4.7%